P3
4 4
255
0 255 0 255 255 255 255 255 255 0 0 0 
255 255 255 255 255 255 255 240 80 255 255 255 
155 255 255 255 0 80 255 255 255 255 255 255 
255 255 255 255 255 255 255 255 255 0 255 0 
